<svg xmlns="http://www.w3.org/2000/svg" width="32" height="33" fill="none"><path fill="url(#a)" d="M24.52 13.443c-.075.51-.411 1.204-.797 1.807a3.37 3.37 0 0 1-2.145 1.478l-3.898.815a3 3 0 0 0-1.621.936l-2.556 2.857c-.48.537-.816.409-.816-.312-.005.027-1.268 3.283 2.078 5.213 1.285.742 3.136.475 4.422-.266l6.812-3.93a10.3 10.3 0 0 0 4.944-6.832q.033-.171.061-.342z"/><path fill="url(#b)" d="M22.753 9.518c1.285.741 1.81 1.845 1.81 3.328q0 .302-.044.597l2.745 1.178 3.74.245c.479-2.771-.46-5.624-2.142-7.892a15.95 15.95 0 0 0-4.854-4.317A16.1 16.1 0 0 0 19.103.803L17.236 3.22l-.59 2.776z"/><path fill="url(#c)" d="M.784 11.552q-.001.004.002 0c.144-.431.324-.913.55-1.428 1.177-2.69 3.447-4.483 6.239-5.398a10.34 10.34 0 0 1 8.385.874l.686.396L19.103.803C11.292-.757 3.307 3.833.794 11.522z"/><path fill="url(#d)" d="M18.92 25.97a4.16 4.16 0 0 1-4.65-.336l-2.26 1.555-1.95 3.149c2.163 1.8 4.972 2.378 7.779 2.057a16 16 0 0 0 6.17-2.042 16.1 16.1 0 0 0 4.06-3.317l-1.163-2.823-1.88-1.765z"/><path fill="url(#e)" d="M14.27 25.634a4.15 4.15 0 0 1-1.583-3.259V11.572c0-.603.178-.706.701-.404-.806-.465-2.668-2.061-4.967-.735-1.285.742-2.344 2.379-2.344 3.862v7.858c0 2.939 1.522 6.004 3.717 7.96.087.078.177.15.266.225z"/><path fill="url(#f)" d="M27.91 5.812q-.003-.001-.001.002c.302.34.63.737.963 1.19a10.302 10.302 0 0 1-3.16 15.048l-.686.396 3.042 4.588c5.258-5.978 5.272-15.18-.137-21.2z"/><path fill="url(#g)" d="M6.344 14.295A4.15 4.15 0 0 1 8.96 10.44l-.217-2.733-1.524-3.128a10.31 10.31 0 0 0-5.904 5.569A15.9 15.9 0 0 0 0 16.506c0 1.835.303 3.568.846 5.171l3.028.407 2.47-.745z"/><path fill="url(#h)" d="M8.96 10.44a4.16 4.16 0 0 1 3.616.26l.111.064 8.896 5.13c.624.36.567.715-.138.862l.513-.107a3.36 3.36 0 0 0 1.764-.99 4.1 4.1 0 0 0 1.109-2.812 4.15 4.15 0 0 0-2.078-3.595l-6.812-3.93a10.33 10.33 0 0 0-8.395-.86q-.164.055-.327.117z"/><path fill="url(#i)" d="M19.322 32.153q.003-.002 0-.002c-.447.091-.955.176-1.514.238A10.318 10.318 0 0 1 6.343 22.131v-.792l-5.498.338C3.4 29.217 11.37 33.83 19.291 32.16z"/><defs><linearGradient id="a" x1="20.06" x2="23.208" y1="24.27" y2="13.307" gradientUnits="userSpaceOnUse"><stop stop-color="#0B7DA0"/><stop offset="1" stop-color="#17A3D0"/></linearGradient><linearGradient id="b" x1="27.309" x2="19.03" y1="10.9" y2="2.65" gradientUnits="userSpaceOnUse"><stop stop-color="#16A2CF"/><stop offset="1" stop-color="#17A3D0"/></linearGradient><linearGradient id="c" x1="16.165" x2="3.674" y1="5.521" y2="6.31" gradientUnits="userSpaceOnUse"><stop stop-color="#17A3D0"/><stop offset="1" stop-color="#15A5CC"/></linearGradient><linearGradient id="d" x1="15.32" x2="26.537" y1="29.163" y2="26.136" gradientUnits="userSpaceOnUse"><stop stop-color="#17A3D0"/><stop offset="1" stop-color="#1395BF"/></linearGradient><linearGradient id="e" x1="7.269" x2="15.232" y1="16.183" y2="24.435" gradientUnits="userSpaceOnUse"><stop stop-color="#0A7C9F"/><stop offset="1" stop-color="#17A3D0"/></linearGradient><linearGradient id="f" x1="25.45" x2="31.007" y1="22.136" y2="10.934" gradientUnits="userSpaceOnUse"><stop stop-color="#1395BF"/><stop offset="1" stop-color="#57B6D5"/></linearGradient><linearGradient id="g" x1="5.364" x2="2.391" y1="9.631" y2="20.807" gradientUnits="userSpaceOnUse"><stop stop-color="#17A3D0"/><stop offset="1" stop-color="#1DA4D0"/></linearGradient><linearGradient id="h" x1="20.543" x2="9.678" y1="9.1" y2="11.805" gradientUnits="userSpaceOnUse"><stop stop-color="#0C7EA0"/><stop offset="1" stop-color="#18A3D1"/></linearGradient><linearGradient id="i" x1="6.407" x2="13.332" y1="21.857" y2="32.275" gradientUnits="userSpaceOnUse"><stop stop-color="#17A3D0"/><stop offset="1" stop-color="#1395BF" stop-opacity=".6"/></linearGradient></defs></svg>