<svg xmlns="http://www.w3.org/2000/svg" viewBox="0 0 24 24"><symbol id="a" fill="#fff" viewBox="0 0 24 24"><path fill="#fff" d="m12 13.4-4.9 4.9a.95.95 0 0 1-.7.275.95.95 0 0 1-.7-.275.95.95 0 0 1-.275-.7q0-.425.275-.7l4.9-4.9-4.9-4.9a.95.95 0 0 1-.275-.7q0-.425.275-.7a.95.95 0 0 1 .7-.275q.425 0 .7.275l4.9 4.9 4.9-4.9a.95.95 0 0 1 .7-.275q.425 0 .7.275a.95.95 0 0 1 .275.7.95.95 0 0 1-.275.7L13.4 12l4.9 4.9a.95.95 0 0 1 .275.7.95.95 0 0 1-.275.7.95.95 0 0 1-.7.275.95.95 0 0 1-.7-.275z"/></symbol><use href="#a"/></svg>